PathFileType	4	(X/Y/Z)	C:/Users/opensim2020/Desktop/walking_exp_matlab/subject03_walking10_straight_02.trc																																																																																																																																					
DataRate	CameraRate	NumFrames	NumMarkers	Units	OrigDataRate	OrigDataStartFrame	OrigNumFrames																																																																																																																																	
100	100	4	45	mm	100	2075	347																																																																																																																																	
Frame#	Time	LFHD			RFHD			LBHD			RBHD			C7			T10			CLAV			STRN			RBAK			LSHO			LUPA			LELB			LFRM			LWRA			LWRB			LFIN			RSHO			RUPA			RELB			RFRM			RWRA			RWRB			RFIN			LASI			RASI			LPSI			RPSI			LTHI			LKNE			LTIB			LANK			LHEE			LTOE			RTHI			RKNE			RTIB			RANK			RHEE			RTOE			*39			*40			*41			*42			*43			*44		
		X1	Y1	Z1	X2	Y2	Z2	X3	Y3	Z3	X4	Y4	Z4	X5	Y5	Z5	X6	Y6	Z6	X7	Y7	Z7	X8	Y8	Z8	X9	Y9	Z9	X10	Y10	Z10	X11	Y11	Z11	X12	Y12	Z12	X13	Y13	Z13	X14	Y14	Z14	X15	Y15	Z15	X16	Y16	Z16	X17	Y17	Z17	X18	Y18	Z18	X19	Y19	Z19	X20	Y20	Z20	X21	Y21	Z21	X22	Y22	Z22	X23	Y23	Z23	X24	Y24	Z24	X25	Y25	Z25	X26	Y26	Z26	X27	Y27	Z27	X28	Y28	Z28	X29	Y29	Z29	X30	Y30	Z30	X31	Y31	Z31	X32	Y32	Z32	X33	Y33	Z33	X34	Y34	Z34	X35	Y35	Z35	X36	Y36	Z36	X37	Y37	Z37	X38	Y38	Z38	X39	Y39	Z39	X40	Y40	Z40	X41	Y41	Z41	X42	Y42	Z42	X43	Y43	Z43	X44	Y44	Z44	X45	Y45	Z45
																																																																																																																																								
261	2.6	713.05206	1622.95789	992.5542	705.67572	1624.32642	1125.69458	589.3194	1568.29077	990.27173	586.93988	1569.52136	1120.64099	567.21997	1410.94421	1042.01611	539.51044	1098.58655	1029.89063	690.58563	1337.4364	1043.40149	736.96423	1173.52039	1027.78528	515.04279	1229.08569	1125.93457	655.68677	1382.8877	889.02795	655.59125	1189.07739	809.99725	662.87311	1066.49231	792.87323	692.96271	939.51398	787.28809	716.71204	820.93488	812.38586	692.36902	827.11084	761.8681	703.20117	740.97565	771.88849	638.06915	1349.88306	1202.75806	640.50763	1124.1958	1263.79871	658.51709	1012.09155	1272.08618	676.85938	876.16321	1269.79883	709.13245	782.55109	1232.37549	676.6438	775.50519	1275.60168	699.73206	704.35675	1263.24438	696.0932	930.0556	903.92444	713.75427	939.28894	1140.85022	539.50616	958.13855	963.99182	550.7561	972.12219	1112.02222	622.9325	625.32239	857.59827	615.02228	445.75763	878.47186	462.19446	316.59006	892.61975	319.48251	171.245	946.0639	272.11887	178.87173	989.03906	386.89548	39.76408	965.65533	679.18964	647.03461	1181.91943	712.58398	469.64664	1140.49377	689.11877	281.49716	1143.01685	687.4325	65.96935	1090.0625	641.80884	34.50755	1039.74976	828.85925	31.2316	1069.80835	623.59802	1674.10718	1041.53271	NaN	NaN	NaN	NaN	NaN	NaN	NaN	NaN	NaN	NaN	NaN	NaN	NaN	NaN	NaN
262	2.61	719.55988	1623.12537	992.97687	712.55273	1624.34351	1126.11963	595.98907	1567.97046	990.99976	594.02338	1569.06335	1121.38562	574.36578	1410.84253	1042.81763	546.16077	1098.56567	1030.86414	697.6814	1337.28894	1043.5625	743.75806	1173.255	1027.77771	522.63446	1229.12903	1127.32739	661.81683	1382.67004	889.1723	659.99225	1188.83606	809.81604	666.69336	1066.33069	792.26941	696.26093	939.28241	785.74408	719.80286	820.46216	810.01318	694.89337	827.09064	759.86926	705.69196	740.91071	769.15405	646.37115	1349.63208	1203.2688	649.7525	1124.04773	1264.79126	668.36658	1012.05634	1273.32141	687.42822	876.23682	1271.08325	719.99127	782.71991	1233.58325	687.83264	775.56006	1277.05737	711.27222	704.64148	1264.73132	701.69641	929.47144	904.43677	720.75891	939.2959	1141.44324	545.2262	957.38531	965.38647	557.45306	972.38208	1113.30847	632.36072	624.60687	857.14685	629.50433	444.75806	877.15851	475.38782	318.35513	892.24866	330.46286	175.58151	946.33099	283.37064	182.7818	990.37408	397.58124	43.48538	962.02081	685.84241	647.08356	1182.50208	717.32007	469.50562	1140.98621	692.0343	281.40765	1143.30054	687.53937	66.02182	1090.01367	641.82288	34.51353	1039.78516	828.97034	31.16065	1069.63904	629.98981	1673.85596	1042.24646	NaN	NaN	NaN	NaN	NaN	NaN	NaN	NaN	NaN	NaN	NaN	NaN	NaN	NaN	NaN
263	2.62	725.89319	1623.33044	993.49591	719.46906	1624.35535	1126.49695	602.65546	1567.58911	991.67377	601.09448	1568.60596	1122.02429	581.40637	1410.96814	1044.16858	552.68414	1098.68433	1031.99341	704.6546	1337.14636	1043.64343	750.31769	1172.97876	1027.66016	529.8642	1229.2998	1128.6571	667.68506	1382.42297	889.24463	664.19263	1188.52649	809.61493	670.72919	1066.26367	791.7298	699.56384	939.01251	784.19312	723.19385	820.13214	807.60846	697.50397	826.99341	757.94623	708.59326	740.93842	766.31177	654.65741	1349.35217	1203.74451	659.16956	1123.91431	1265.71399	678.33063	1012.03436	1274.4635	698.09161	876.30939	1272.32874	730.81146	782.98932	1234.71912	699.0531	775.72583	1278.49597	722.93317	704.95038	1266.20715	707.24335	929.00879	904.87781	727.71552	939.29657	1142.01025	550.76807	956.72278	966.88098	564.22345	972.18475	1114.58789	641.92993	624.3808	857.08313	644.16205	444.50183	875.95221	488.8103	320.38922	892.09424	342.55844	179.26169	946.25916	295.61917	185.82697	991.09229	409.67664	46.7813	958.47821	691.80963	647.15051	1183.19141	721.84503	469.35617	1141.4021	694.81512	281.30615	1143.46973	687.66394	66.06558	1089.88916	641.80713	34.64842	1039.7356	829.00098	31.08287	1069.54285	636.38977	1673.59436	1042.85974	NaN	NaN	NaN	NaN	NaN	NaN	NaN	NaN	NaN	NaN	NaN	NaN	NaN	NaN	NaN
264	2.63	732.4848	1623.49255	993.5578	726.29254	1624.39404	1126.74487	609.35254	1567.30383	992.21448	608.15076	1568.23926	1122.61401	588.51819	1411.06042	1044.6637	559.03632	1098.75598	1033.17383	711.46075	1337.02185	1043.62	756.74652	1172.7749	1027.47168	537.07343	1229.56116	1130.03857	673.14795	1382.09863	889.40027	668.22516	1188.28284	809.38098	674.38696	1065.95911	790.95361	702.91235	938.83832	782.65472	726.72034	819.89313	805.29858	700.61176	827.14917	755.86035	711.90308	741.11029	763.5625	663.03015	1349.17334	1204.01733	668.64844	1123.83826	1266.48071	688.43176	1012.0943	1275.49878	708.87622	876.43018	1273.5	741.74719	783.25031	1235.85327	710.37061	775.88666	1279.87317	734.66833	705.3316	1267.68311	712.78448	928.77429	905.27008	734.58209	939.34351	1142.60706	556.47186	956.00903	968.31335	570.8808	972.09296	1115.86572	651.35455	624.60211	856.8327	658.79254	444.61597	874.74536	502.65479	322.34149	891.78607	355.61737	181.9691	945.84406	308.74884	188.0078	991.29181	423.09698	49.56924	955.46039	697.01758	647.56812	1184.34521	726.34644	469.17188	1141.73376	697.5368	281.18384	1143.63098	687.86816	66.03047	1089.80078	641.84222	34.67736	1039.68066	829.08716	31.01514	1069.40454	642.91571	1673.36011	1043.2832	NaN	NaN	NaN	NaN	NaN	NaN	NaN	NaN	NaN	NaN	NaN	NaN	NaN	NaN	NaN
